# xmcd
# 
# Track frame offsets:
#     150
#     5097
#     24640
#     38285
#     58202
#     73198
#     96394
#     115514
#     131019
#     149336
#     165136
#     180135
# 
# Disc length: 2427
# 
# Revision: 1
# Processed by: cddbd v1.5.2PL0 Copyright (c) Steve Scherf et al.
# Submitted via: fre:ac v1.0.17
# 
DISCID=9709790c
DTITLE=Ginuwine - I Apologize
DYEAR=2007
DGENRE=R&B
TTITLE0=Intro
TTITLE1=I Apologize
TTITLE2=Since I Found U (featuring Tommy Redding)
TTITLE3=Better Days (featuring Tommy Redding)
TTITLE4=Happy At Home (featuring I-Rocc)
TTITLE5=Say When (featuring Tommy Redding)
TTITLE6=It's Real (featuring Rachel Evans and Mike Eddy)
TTITLE7=What's It Gunna Be (featuring Tommy Redding)
TTITLE8=Like Me (featuring Loon and G-Dep)
TTITLE9=Twerk (featuring Tommy Redding)
TTITLE10=I Apologize (Remix) (featuring Smigg Dirty)
TTITLE11=Outro
EXTD=
EXTT0=
EXTT1=
EXTT2=
EXTT3=
EXTT4=
EXTT5=
EXTT6=
EXTT7=
EXTT8=
EXTT9=
EXTT10=
EXTT11=
PLAYORDER=
